<?xml version="1.0" encoding="UTF-8" standalone="no"?>
<!DOCTYPE svg PUBLIC "-//W3C//DTD SVG 1.1//EN" "http://www.w3.org/Graphics/SVG/1.1/DTD/svg11.dtd">
<svg width="100%" height="100%" viewBox="0 0 512 512" version="1.1" xmlns="http://www.w3.org/2000/svg" xmlns:xlink="http://www.w3.org/1999/xlink" xml:space="preserve" xmlns:serif="http://www.serif.com/" style="fill-rule:evenodd;clip-rule:evenodd;stroke-linejoin:round;stroke-miterlimit:2;">
    <g transform="matrix(1.09044,0,0,1.09044,-17.1415,-13.7792)">
        <rect x="15.72" y="12.636" width="469.535" height="469.535" style="fill:rgb(255,248,250);"/>
    </g>
    <g transform="matrix(1.03562,0,0,1.03562,0.0267031,20.2881)">
        <path d="M93.275,158.23C110.806,158.23 143.704,127.358 173.738,135.754C215.543,147.442 223.315,162.056 212.846,248.133C208.801,281.398 189.996,343.581 185.875,363.21C183.298,375.486 186.004,381.45 194.204,389.148C201.005,395.534 216.611,405.703 244.736,409.576C259.866,411.659 274.109,419.892 287.861,425.99C312.935,437.107 331.804,445.904 338.603,436.17C341.404,432.16 343.882,424.459 341.835,412.595C340.401,404.286 336.028,394.417 331.069,380.291C321.682,353.547 315.88,327.8 310.498,304.019C301.6,264.694 296.507,230.339 297.825,202.741C298.991,178.301 302.589,158.935 312.979,147.586C327.432,131.799 343.704,127.605 357.873,131.331C372.351,135.138 386.991,141.53 392.898,144.029C404.585,148.974 427.266,162.276 439.403,140.699C445.534,129.799 437.372,107.999 428.561,86.719C419.932,65.876 410.786,45.53 403.891,36.411C389.956,17.981 363.324,34.189 334.133,40.422C294.988,48.78 220.488,51.694 189.921,44.952C159.354,38.209 112.604,25.173 105.861,41.356C99.119,57.538 82.486,94.848 72.597,122.269C62.708,149.689 75.744,158.23 93.275,158.23Z" style="fill:rgb(195,12,45);"/>
    </g>
    <path d="M58.653,176.847C59.807,180.112 61.38,182.923 63.2,185.325C64.167,186.601 65.233,187.793 66.393,188.9C61.794,205.567 59.336,223.124 59.336,241.25C59.336,323.427 109.848,393.899 181.501,423.291C181.513,423.295 177.917,433.564 177.923,433.591C177.947,433.702 178.028,433.633 177.923,433.591C102.018,402.713 48.45,328.188 48.45,241.25C48.45,221.744 51.146,202.863 56.189,184.955C56.956,182.229 57.778,179.526 58.653,176.847ZM456.445,187.257C461.079,204.479 463.55,222.579 463.55,241.25C463.55,317.426 422.423,384.072 361.168,420.184C359.982,416.948 358.716,413.484 357.402,409.754C414.475,375.307 452.664,312.703 452.664,241.25C452.664,224.296 450.514,207.84 446.47,192.135C449.928,191.133 453.277,189.554 456.445,187.257ZM180.824,47.755C204.14,38.68 229.493,33.7 256,33.7C283.698,33.7 310.137,39.137 334.297,48.999C327.097,50.253 319.081,51.354 310.615,52.282C293.28,47.273 274.951,44.587 256,44.587C237.005,44.587 218.636,47.285 201.24,52.324C200.813,52.237 200.389,52.148 199.974,52.056C194.037,50.747 187.541,49.245 180.824,47.755Z" style="fill:rgb(220,195,104);"/>
</svg>
